HIERARCHY
ROOT Hips
{
  OFFSET 0.0 0.0 0.0
  CHANNELS 6 Xposition Yposition Zposition Yrotation Xrotation Zrotation
  JOINT Chest
  {
    OFFSET 0.0 0.09725 -0.01081
    CHANNELS 3 Yrotation Xrotation Zrotation
    JOINT Chest2
    {
      OFFSET 0.0 0.10781 0.0
      CHANNELS 3 Yrotation Xrotation Zrotation
      JOINT Chest3
      {
        OFFSET 0.0 0.09843 -1e-05
        CHANNELS 3 Yrotation Xrotation Zrotation
        JOINT Chest4
        {
          OFFSET 0.0 0.09832 -1e-05
          CHANNELS 3 Yrotation Xrotation Zrotation
          JOINT Neck
          {
            OFFSET 0.0 0.13778 0.0
            CHANNELS 3 Yrotation Xrotation Zrotation
            JOINT Head
            {
              OFFSET 0.0 0.09154 1e-05
              CHANNELS 3 Yrotation Xrotation Zrotation
              End Site
              {
                OFFSET 0.0 0.17013 0.0
              }
            }
          }
          JOINT RightCollar
          {
            OFFSET -0.02998 0.07724 0.0
            CHANNELS 3 Yrotation Xrotation Zrotation
            JOINT RightShoulder
            {
              OFFSET -0.14002 0.0 0.0
              CHANNELS 3 Yrotation Xrotation Zrotation
              JOINT RightElbow
              {
                OFFSET -0.30004 0.0 0.0
                CHANNELS 3 Yrotation Xrotation Zrotation
                JOINT RightWrist
                {
                  OFFSET -0.24524 0.0 0.0
                  CHANNELS 3 Yrotation Xrotation Zrotation
                  End Site
                  {
                    OFFSET -0.18302 0.0 0.0
                  }
                }
              }
            }
          }
          JOINT LeftCollar
          {
            OFFSET 0.02998 0.07724 0.0
            CHANNELS 3 Yrotation Xrotation Zrotation
            JOINT LeftShoulder
            {
              OFFSET 0.14002 0.0 0.0
              CHANNELS 3 Yrotation Xrotation Zrotation
              JOINT LeftElbow
              {
                OFFSET 0.30004 0.0 0.0
                CHANNELS 3 Yrotation Xrotation Zrotation
                JOINT LeftWrist
                {
                  OFFSET 0.24524 0.0 0.0
                  CHANNELS 3 Yrotation Xrotation Zrotation
                  End Site
                  {
                    OFFSET 0.18302 0.0 0.0
                  }
                }
              }
            }
          }
        }
      }
    }
  }
  JOINT RightHip
  {
    OFFSET -0.07997 2e-05 -0.0
    CHANNELS 3 Yrotation Xrotation Zrotation
    JOINT RightKnee
    {
      OFFSET 0.0 -0.4162 -0.0
      CHANNELS 3 Yrotation Xrotation Zrotation
      JOINT RightAnkle
      {
        OFFSET 0.0 -0.40601 -0.0
        CHANNELS 3 Yrotation Xrotation Zrotation
        JOINT RightToe
        {
          OFFSET 0.0 -0.06581 0.14895
          CHANNELS 3 Yrotation Xrotation Zrotation
          End Site
          {
            OFFSET 0.0 -0.01508 0.06451
          }
        }
      }
    }
  }
  JOINT LeftHip
  {
    OFFSET 0.07997 0.0 -0.0
    CHANNELS 3 Yrotation Xrotation Zrotation
    JOINT LeftKnee
    {
      OFFSET 0.0 -0.4162 -0.0
      CHANNELS 3 Yrotation Xrotation Zrotation
      JOINT LeftAnkle
      {
        OFFSET 0.0 -0.40601 -0.0
        CHANNELS 3 Yrotation Xrotation Zrotation
        JOINT LeftToe
        {
          OFFSET 0.0 -0.06581 0.14895
          CHANNELS 3 Yrotation Xrotation Zrotation
          End Site
          {
            OFFSET 0.0 -0.01508 0.06451
          }
        }
      }
    }
  }
}
MOTION
Frames: 17
Frame Time: 0.016667000268312315
1.46584 0.89963 1.5078 -4.96149 2.86899 -0.56296 -1.49392 -0.15821 1.17542 -0.71682 -5.9002 0.52468 -0.71307 -0.08022 0.45191 -0.50015 5.77589 0.34052 -16.546770000000002 4.87955 -0.9531500000000008 -32.001509999999996 9.984610000000004 5.590579999999999 -2.67278 -2.62279 8.8357 -17.31128 -1.64934 68.32454 40.10248 -13.73641 38.97159 23.17022 -5.53626 -15.217 3.80074 0.65453 -9.54414 9.25972 -1.85028 -65.63583 -56.32515 -10.95594 -56.97987 -15.53862 -25.75014 -14.05073 3.70414 0.62576 -1.8507 -0.03619 2.83957 -0.42666 -1.67123 -5.82991 1.94981 -0.0015 -0.32595 0.88375 8.47994 -3.25458 5.23373 2.78096 4.6123 0.44995 -6.76043 -4.57128 -3.89315 0.0005 -0.0642 -0.78657
1.46582 0.89964 1.50787 -4.92107 2.88499 -0.57156 -1.48788 -0.14182 1.17225 -0.71404 -5.89289 0.52331 -0.71031 -0.07291 0.45082 -0.49817 5.78138 0.33971 -16.540639999999996 4.770009999999999 -0.8924899999999987 -32.05505000000001 9.81755 5.746039999999997 -2.66903 -2.62403 8.82777 -17.28971 -1.66936 68.34645 40.1198 -13.75689 38.96716 23.17254 -5.52875 -15.21361 3.81302 0.63652 -9.55688 9.25911 -1.83951 -65.62941 -56.34555 -10.96074 -56.97812 -15.53977 -25.75064 -14.04652 3.69063 0.59445 -1.84367 -0.04447 2.88569 -0.41603 -1.69605 -5.83355 1.95753 -0.00194 -0.36978 0.8708 8.46114 -3.28709 5.24528 2.77211 4.63909 0.44705 -6.77126 -4.57352 -3.89598 0.00091 -0.09376 -1.11701
1.4658 0.89966 1.50793 -4.8779 2.9035 -0.57787 -1.48195 -0.12863 1.16845 -0.71127 -5.887 0.52165 -0.70757 -0.06702 0.44945 -0.49622 5.7858 0.33869 -16.5315 4.6471 -0.8343999999999987 -32.10586000000001 9.626250000000002 5.9012899999999995 -2.66953 -2.61874 8.81726 -17.26364 -1.6939 68.37111 40.14182 -13.76951 38.96052 23.17144 -5.51071 -15.20937 3.82062 0.61774 -9.57075 9.26183 -1.82773 -65.61511 -56.36296 -10.96349 -56.97916 -15.54251 -25.74635 -14.03587 3.67626 0.56028 -1.84017 -0.05349 2.93184 -0.40465 -1.72069 -5.83733 1.96563 -0.00236 -0.41252 0.8579 8.44208 -3.32313 5.25247 2.76112 4.66616 0.44574 -6.78239 -4.5758 -3.8976 0.0011 -0.10787 -1.19763
1.46579 0.89968 1.50797 -4.8325 2.92263 -0.58236 -1.47631 -0.11711 1.16407 -0.7086 -5.88185 0.51973 -0.70492 -0.06187 0.44779 -0.49436 5.78967 0.33745 -16.520449999999997 4.5086200000000005 -0.7736199999999975 -32.15974 9.409010000000002 6.067639999999997 -2.67259 -2.61075 8.80631 -17.23523 -1.72039 68.39607 40.1666 -13.7783 38.95425 23.1684 -5.48643 -15.20428 3.8264 0.59803 -9.58456 9.26588 -1.81476 -65.59591 -56.37904 -10.96468 -56.98124 -15.5456 -25.73926 -14.02202 3.66038 0.52414 -1.83948 -0.06199 2.97996 -0.39215 -1.74566 -5.84239 1.97317 -0.00275 -0.4536 0.84553 8.42301 -3.36039 5.25683 2.74866 4.69286 0.44504 -6.79449 -4.5781 -3.89814 0.00113 -0.11428 -1.15334
1.4658 0.89969 1.508 -4.78765 2.93952 -0.58563 -1.47057 -0.1051 1.15943 -0.70587 -5.87649 0.51769 -0.70221 -0.0565 0.44604 -0.49246 5.7937 0.33613 -16.51065 4.345280000000001 -0.6952199999999991 -32.23464 9.15576 6.27824 -2.67818 -2.61132 8.80114 -17.2084 -1.74018 68.4111 40.19004 -13.7887 38.95378 23.16621 -5.46417 -15.19912 3.83536 0.57668 -9.59592 9.2704 -1.80036 -65.57981 -56.3959 -10.96425 -56.98334 -15.55154 -25.7358 -14.01067 3.64118 0.48857 -1.84099 -0.06434 3.02992 -0.37805 -1.77187 -5.85187 1.9769 -0.00304 -0.48583 0.83648 8.40596 -3.39386 5.25971 2.73659 4.7152 0.44379 -6.80924 -4.5802 -3.89704 0.00114 -0.11806 -1.10987
1.46581 0.8997 1.50802 -4.74363 2.95253 -0.58786 -1.4646 -0.09092 1.1548 -0.70305 -5.87016 0.51566 -0.69941 -0.05016 0.44429 -0.4905 5.79845 0.33483 -16.502559999999995 4.152749999999999 -0.594459999999998 -32.33513000000001 8.861290000000004 6.5447500000000005 -2.67315 -2.59693 8.80846 -17.19477 -1.78109 68.41555 40.21146 -13.80349 38.96469 23.16602 -5.44592 -15.19382 3.8502 0.55181 -9.60357 9.27302 -1.78439 -65.56961 -56.41484 -10.96144 -56.98436 -15.56306 -25.74029 -14.00432 3.61673 0.45282 -1.84505 -0.05625 3.0859 -0.36072 -1.80109 -5.86891 1.97456 -0.0032 -0.50553 0.83214 8.39201 -3.42196 5.26184 2.7248 4.73277 0.44124 -6.828 -4.58281 -3.8936 0.00117 -0.12039 -1.10934
1.46582 0.89972 1.50802 -4.70015 2.9633 -0.58887 -1.45854 -0.07625 1.1499 -0.70018 -5.86361 0.51351 -0.69656 -0.04361 0.44244 -0.48851 5.80337 0.33344 -16.496029999999998 3.9353000000000002 -0.4761799999999994 -32.45742 8.531390000000002 6.8568 -2.67064 -2.59111 8.82155 -17.18272 -1.81525 68.41008 40.23156 -13.81989 38.98141 23.1667 -5.4297 -15.18844 3.86823 0.52528 -9.6088 9.27611 -1.76698 -65.5625 -56.43455 -10.95702 -56.9854 -15.57742 -25.74842 -14.00047 3.58896 0.41763 -1.8513 -0.042 3.14372 -0.34177 -1.83156 -5.89038 1.96841 -0.00327 -0.51638 0.83113 8.38007 -3.44626 5.2625 2.71339 4.74598 0.43815 -6.84942 -4.58523 -3.88851 0.00116 -0.12008 -1.10962
1.46585 0.89972 1.50801 -4.65911 2.97392 -0.58874 -1.45238 -0.06399 1.14427 -0.69722 -5.85813 0.51103 -0.69362 -0.03813 0.44026 -0.48648 5.80749 0.33181 -16.493470000000002 3.6965299999999996 -0.33989000000000047 -32.60718 8.172710000000002 7.214949999999998 -2.71014 -2.67568 8.82636 -17.14127 -1.75049 68.38661 40.24818 -13.83501 38.99256 23.16771 -5.41786 -15.18391 3.8864 0.50194 -9.61303 9.2859 -1.74828 -65.55816 -56.45329 -10.95317 -56.98877 -15.58888 -25.7536 -13.99736 3.56176 0.38774 -1.85805 -0.02892 3.19064 -0.32571 -1.85881 -5.91001 1.96209 -0.00331 -0.5222 0.83207 8.36888 -3.46654 5.26088 2.70451 4.75207 0.43563 -6.87113 -4.58519 -3.88323 0.00115 -0.11867 -1.11008
1.46588 0.89972 1.508 -4.62356 2.98562 -0.58719 -1.44556 -0.05601 1.13757 -0.69391 -5.85455 0.50806 -0.69033 -0.03454 0.43762 -0.48421 5.81019 0.32983 -16.494189999999996 3.4356500000000003 -0.1847600000000007 -32.783879999999996 7.784530000000004 7.621779999999998 -2.83117 -2.9327 8.81386 -17.03935 -1.49801 68.33081 40.26167 -13.84783 38.99242 23.1697 -5.41188 -15.18099 3.90489 0.48496 -9.61683 9.30682 -1.72899 -65.5565 -56.47126 -10.95021 -56.99617 -15.59416 -25.75162 -13.99542 3.53638 0.36391 -1.86546 -0.0174 3.22319 -0.31353 -1.88093 -5.92708 1.95599 -0.00332 -0.52363 0.83502 8.36015 -3.48198 5.25639 2.69952 4.74882 0.43382 -6.89245 -4.58181 -3.87814 0.00113 -0.11664 -1.11062
1.46593 0.89972 1.508 -4.59046 2.99716 -0.58449 -1.43865 -0.05043 1.13013 -0.69051 -5.85203 0.50475 -0.68696 -0.03202 0.43466 -0.48191 5.81208 0.3276 -16.499269999999996 3.15345 -0.01162000000000063 -32.989059999999995 7.368690000000001 8.07677 -2.99425 -3.28007 8.79386 -16.90842 -1.1464 68.25823 40.27167 -13.85936 38.98674 23.17205 -5.41029 -15.17892 3.92352 0.47118 -9.6196 9.33444 -1.7084 -65.55759 -56.48824 -10.94783 -57.0059 -15.59656 -25.74669 -13.99422 3.51158 0.34538 -1.87335 -0.00706 3.24486 -0.30426 -1.89983 -5.94229 1.94969 -0.0033 -0.52003 0.83993 8.35216 -3.4934 5.24964 2.69705 4.73845 0.43258 -6.91406 -4.57599 -3.87287 0.0011 -0.11352 -1.11135
1.46599 0.89971 1.50797 -4.55253 3.00691 -0.58151 -1.43333 -0.04444 1.12242 -0.68782 -5.84934 0.50132 -0.68428 -0.02932 0.4315 -0.48015 5.81412 0.32522 -16.5137 2.85596 0.17767000000000266 -33.231570000000005 6.935750000000002 8.57594 -3.12053 -3.55328 8.77966 -16.81087 -0.86984 68.20454 40.27499 -13.86971 38.98142 23.17228 -5.41106 -15.17639 3.93869 0.45588 -9.62101 9.36167 -1.68461 -65.56129 -56.50189 -10.94725 -57.0152 -15.60031 -25.74478 -13.99071 3.48753 0.33458 -1.87961 -0.00403 3.25342 -0.29952 -1.91677 -5.95154 1.94559 -0.00324 -0.51331 0.84525 8.33845 -3.50296 5.24165 2.69514 4.72492 0.43257 -6.93564 -4.56808 -3.86782 0.00106 -0.10936 -1.11194
1.46606 0.89971 1.50792 -4.50498 3.01315 -0.57869 -1.43117 -0.03578 1.11504 -0.68654 -5.84546 0.49805 -0.68302 -0.02545 0.42836 -0.47944 5.81703 0.32286 -16.54 2.53745 0.3887199999999993 -33.52262 6.479090000000003 9.13475 -3.17203 -3.67438 8.77636 -16.77654 -0.75177 68.18548 40.2693 -13.87962 38.97896 23.16868 -5.41416 -15.17282 3.94907 0.43708 -9.62083 9.38596 -1.65614 -65.56873 -56.5095 -10.95068 -57.02377 -15.60813 -25.7502 -13.98274 3.46305 0.33448 -1.88309 -0.01173 3.24665 -0.3006 -1.93172 -5.95352 1.94458 -0.00313 -0.5022 0.85101 8.31414 -3.51063 5.23258 2.69319 4.70997 0.43454 -6.95708 -4.55896 -3.86284 0.00101 -0.10349 -1.11242
1.46614 0.89971 1.50785 -4.45259 3.01759 -0.57558 -1.4306 -0.0267 1.1074 -0.68597 -5.84141 0.49466 -0.68245 -0.02139 0.42503 -0.47928 5.82008 0.32035 -16.57613 2.20373 0.6160099999999993 -33.852599999999995 6.007100000000001 9.74061 -3.1867 -3.72132 8.77807 -16.77521 -0.70895 68.18417 40.25693 -13.88837 38.97688 23.16297 -5.41963 -15.16879 3.956 0.41678 -9.61928 9.40985 -1.62445 -65.57876 -56.51376 -10.95589 -57.0319 -15.6173 -25.75864 -13.97246 3.43933 0.34212 -1.88492 -0.02674 3.22677 -0.30621 -1.94471 -5.94953 1.94577 -0.00298 -0.48797 0.85717 8.28411 -3.51644 5.22227 2.6918 4.69186 0.43774 -6.97849 -4.54775 -3.85809 0.00094 -0.0966 -1.11277
1.46622 0.89972 1.50776 -4.40253 3.02381 -0.57176 -1.42865 -0.02109 1.0982 -0.6847 -5.83889 0.49057 -0.68119 -0.01887 0.42106 -0.47864 5.82198 0.31737 -16.6199 1.8781400000000001 0.8409300000000002 -34.19837 5.552100000000003 10.346049999999998 -3.19951 -3.76337 8.78078 -16.77867 -0.66569 68.18623 40.24168 -13.89382 38.97353 23.1579 -5.42558 -15.16469 3.95985 0.39629 -9.61664 9.43383 -1.59207 -65.58779 -56.52051 -10.95751 -57.03773 -15.62389 -25.76317 -13.96329 3.42009 0.35106 -1.88636 -0.0449 3.19823 -0.31414 -1.9571 -5.93941 1.94893 -0.00286 -0.47644 0.86214 8.25645 -3.5227 5.21124 2.69079 4.66935 0.44065 -6.99984 -4.53227 -3.85441 0.00088 -0.09077 -1.11259
1.46628 0.89973 1.50766 -4.35742 3.03438 -0.56645 -1.42402 -0.02132 1.0869 -0.68213 -5.83894 0.48552 -0.67864 -0.01892 0.41628 -0.47709 5.82195 0.31376 -16.671569999999996 1.5651899999999999 1.0586300000000008 -34.55668 5.119550000000004 10.93921 -3.22262 -3.82538 8.783 -16.78007 -0.59295 68.18707 40.22512 -13.89446 38.96787 23.15608 -5.43254 -15.1607 3.9603 0.37632 -9.61273 9.45905 -1.55877 -65.5948 -56.53289 -10.95251 -57.0401 -15.62658 -25.75921 -13.95563 3.4093 0.35941 -1.88811 -0.06594 3.15895 -0.32464 -1.9708 -5.92103 1.95495 -0.00281 -0.47063 0.86501 8.23675 -3.53083 5.19862 2.6892 4.6399 0.44265 -7.0226 -4.51026 -3.85197 0.0009 -0.08977 -1.15244
1.46635 0.89974 1.50755 -4.31463 3.04672 -0.56043 -1.41801 -0.025 1.07403 -0.67887 -5.84053 0.47976 -0.67539 -0.02051 0.41085 -0.47507 5.82077 0.30966 -16.730710000000002 1.26045 1.2740600000000022 -34.930530000000005 4.704040000000003 11.53173 -3.24388 -3.8825 8.7862 -16.78627 -0.51977 68.19128 40.20568 -13.89181 38.96094 23.15488 -5.43998 -15.15666 3.95767 0.35617 -9.60772 9.48437 -1.5248 -65.60081 -56.54776 -10.94393 -57.04017 -15.6267 -25.75134 -13.94909 3.40301 0.36906 -1.88946 -0.09012 3.111 -0.33745 -1.9839 -5.89653 1.96294 -0.0028 -0.46751 0.86668 8.21943 -3.53941 5.18529 2.68799 4.60606 0.44436 -7.04531 -4.48397 -3.85061 0.00093 -0.08985 -1.19175
1.4664 0.89975 1.50742 -4.2734 3.05659 -0.55557 -1.41152 -0.02894 1.05989 -0.67534 -5.84223 0.47343 -0.67187 -0.0222 0.40488 -0.47288 5.81951 0.30516 -16.793770000000002 0.9739300000000002 1.4833300000000023 -35.30491000000001 4.320330000000002 12.109199999999998 -3.26194 -3.92944 8.79077 -16.78965 -0.45763 68.19837 40.18253 -13.88827 38.95414 23.14922 -5.44441 -15.15241 3.95336 0.33509 -9.60238 9.50679 -1.49337 -65.6054 -56.5615 -10.93542 -57.03946 -15.62422 -25.74633 -13.94587 3.39309 0.37925 -1.88954 -0.11408 3.06515 -0.34954 -1.99195 -5.87214 1.96991 -0.00278 -0.46375 0.86832 8.19584 -3.54635 5.17431 2.68985 4.57417 0.44609 -7.06351 -4.45797 -3.85068 0.00079 -0.08183 -1.10838
